<?xml version="1.0" standalone="no"?><!DOCTYPE svg PUBLIC "-//W3C//DTD SVG 1.1//EN" "http://www.w3.org/Graphics/SVG/1.1/DTD/svg11.dtd"><svg class="icon" width="32px" height="32.00px" viewBox="0 0 1024 1024" version="1.1" xmlns="http://www.w3.org/2000/svg"><path d="M192 444.8c-16 16-6.4 44.8 19.2 44.8l246.4 3.2c16 0 25.6-12.8 25.6-25.6L473.6 224c0-22.4-28.8-35.2-44.8-16L348.8 288 204.8 144 131.2 217.6l144 144L192 444.8zM553.6 496l240-6.4c22.4 0 35.2-28.8 16-44.8l-80-80 147.2-147.2-73.6-73.6-147.2 147.2-86.4-86.4c-12.8-12.8-41.6-3.2-41.6 19.2l-3.2 246.4c0 12.8 12.8 25.6 28.8 25.6zM457.6 537.6l-246.4 3.2c-22.4 0-35.2 28.8-19.2 44.8l76.8 76.8L128 803.2l73.6 73.6 144-144 86.4 86.4c16 16 44.8 6.4 44.8-16l6.4-240c3.2-12.8-9.6-25.6-25.6-25.6zM816 582.4c16-16 6.4-44.8-16-44.8l-240-6.4c-16 0-25.6 12.8-25.6 25.6l3.2 246.4c0 22.4 28.8 35.2 44.8 19.2l83.2-83.2 144 144 73.6-73.6-147.2-144 80-83.2z" /></svg>