<?xml version="1.0" encoding="UTF-8"?>
<!DOCTYPE svg PUBLIC "-//W3C//DTD SVG 1.1//EN" "http://www.w3.org/Graphics/SVG/1.1/DTD/svg11.dtd">
<!-- Creator: CorelDRAW X8 -->
<svg xmlns="http://www.w3.org/2000/svg" xml:space="preserve" width="50mm" height="50mm" version="1.1" style="shape-rendering:geometricPrecision; text-rendering:geometricPrecision; image-rendering:optimizeQuality; fill-rule:evenodd; clip-rule:evenodd"
viewBox="0 0 5000 5000"
 xmlns:xlink="http://www.w3.org/1999/xlink">
 <defs>
  <style type="text/css">
   <![CDATA[
    .str0 {stroke:white;stroke-width:110.64}
    .fil1 {fill:none}
    .fil0 {fill:#18ACB6}
   ]]>
  </style>
   <clipPath id="id0">
    <rect x="1051" y="1374" width="4355" height="3847"/>
   </clipPath>
 </defs>
 <g id="图层_x0020_1">
  <metadata id="CorelCorpID_0Corel-Layer"/>
  <path class="fil0" d="M2647 161l913 527 913 528c90,52 142,141 142,245l0 1054 0 1054c0,104 -52,194 -142,245l-913 528 -913 527c-90,52 -193,52 -283,0l-913 -527 -913 -528c-90,-51 -141,-141 -141,-245l0 -1054 0 -1054c0,-104 51,-193 141,-245l913 -528 913 -527c90,-52 193,-52 283,0z"/>
  <g style="clip-path:url(#id0)">
   <line class="fil1 str0" x1="2832" y1="3249" x2="2632" y2= "3249" />
   <line id="1" class="fil1 str0" x1="3827" y1="1759" x2="3827" y2= "2700" />
   <path id="2" class="fil1 str0" d="M1429 3249c-53,0 -95,-40 -95,-90"/>
   <line id="3" class="fil1 str0" x1="1334" y1="3159" x2="1334" y2= "1759" />
   <line id="4" class="fil1 str0" x1="1543" y1="1837" x2="1671" y2= "1837" />
   <line id="5" class="fil1 str0" x1="1822" y1="1837" x2="1951" y2= "1837" />
   <line id="6" class="fil1 str0" x1="2102" y1="1837" x2="2230" y2= "1837" />
   <line id="7" class="fil1 str0" x1="2382" y1="1837" x2="2510" y2= "1837" />
   <line id="8" class="fil1 str0" x1="2662" y1="1837" x2="2790" y2= "1837" />
   <line id="9" class="fil1 str0" x1="2941" y1="1837" x2="3070" y2= "1837" />
   <line id="10" class="fil1 str0" x1="3221" y1="1837" x2="3349" y2= "1837" />
   <line id="11" class="fil1 str0" x1="3500" y1="1837" x2="3628" y2= "1837" />
   <line id="12" class="fil1 str0" x1="1543" y1="2059" x2="1671" y2= "2059" />
   <line id="13" class="fil1 str0" x1="1822" y1="2059" x2="1951" y2= "2059" />
   <line id="14" class="fil1 str0" x1="2102" y1="2059" x2="2230" y2= "2059" />
   <line id="15" class="fil1 str0" x1="2382" y1="2059" x2="2510" y2= "2059" />
   <line id="16" class="fil1 str0" x1="2662" y1="2059" x2="2790" y2= "2059" />
   <line id="17" class="fil1 str0" x1="2941" y1="2059" x2="3070" y2= "2059" />
   <line id="18" class="fil1 str0" x1="3221" y1="2059" x2="3349" y2= "2059" />
   <line id="19" class="fil1 str0" x1="3500" y1="2059" x2="3628" y2= "2059" />
   <line id="20" class="fil1 str0" x1="1543" y1="2280" x2="1671" y2= "2280" />
   <line id="21" class="fil1 str0" x1="2382" y1="2280" x2="2510" y2= "2280" />
   <line id="22" class="fil1 str0" x1="2662" y1="2280" x2="2790" y2= "2280" />
   <line id="23" class="fil1 str0" x1="2941" y1="2280" x2="3070" y2= "2280" />
   <line id="24" class="fil1 str0" x1="3500" y1="2280" x2="3628" y2= "2280" />
   <line id="25" class="fil1 str0" x1="2382" y1="2501" x2="3030" y2= "2501" />
   <line id="26" class="fil1 str0" x1="2662" y1="2501" x2="2790" y2= "2501" />
   <line id="27" class="fil1 str0" x1="2941" y1="2501" x2="3070" y2= "2501" />
   <line id="28" class="fil1 str0" x1="3500" y1="2501" x2="3628" y2= "2501" />
   <path id="29" class="fil1 str0" d="M3990 1646c-44,-73 -126,-149 -221,-149"/>
   <line id="30" class="fil1 str0" x1="3769" y1="1497" x2="1392" y2= "1497" />
   <path id="31" class="fil1 str0" d="M1392 1497c-95,0 -177,76 -222,149"/>
   <line id="32" class="fil1 str0" x1="1170" y1="1646" x2="3990" y2= "1646" />
   <line id="33" class="fil1 str0" x1="3841" y1="3708" x2="3841" y2= "3589" />
   <path id="34" class="fil1 str0" d="M3841 3589c59,-42 98,-109 98,-186"/>
   <polyline id="35" class="fil1 str0" points="3939,3403 3939,3000 3934,2911 "/>
   <path id="36" class="fil1 str0" d="M3934 2911c0,-48 -40,-87 -90,-87 -51,0 -91,17 -91,65"/>
   <line id="37" class="fil1 str0" x1="3753" y1="2889" x2="3753" y2= "2868" />
   <path id="38" class="fil1 str0" d="M3753 2868c0,-48 -40,-87 -91,-87 -50,0 -90,39 -90,87"/>
   <line id="39" class="fil1 str0" x1="3572" y1="2868" x2="3572" y2= "2824" />
   <path id="40" class="fil1 str0" d="M3572 2824c0,-47 -40,-86 -91,-86 -49,0 -90,39 -90,86"/>
   <line id="41" class="fil1 str0" x1="3391" y1="2824" x2="3391" y2= "2873" />
   <path id="42" class="fil1 str0" d="M3391 2873c0,-117 -1,-498 -1,-498 0,-49 -42,-89 -94,-89 -51,0 -93,40 -93,89"/>
   <polyline id="43" class="fil1 str0" points="3203,2375 3202,3249 3200,3206 3200,3027 "/>
   <path id="44" class="fil1 str0" d="M3200 3027c0,-72 -62,-131 -138,-131"/>
   <line id="45" class="fil1 str0" x1="3062" y1="2896" x2="3016" y2= "2896" />
   <path id="46" class="fil1 str0" d="M3016 2896c-3,0 2,0 0,0"/>
   <line id="47" class="fil1 str0" x1="3016" y1="2896" x2="3016" y2= "3061" />
   <path id="48" class="fil1 str0" d="M3016 3061c0,0 -1,0 0,0"/>
   <polyline id="49" class="fil1 str0" points="3016,3061 3016,3280 3278,3572 "/>
   <path id="50" class="fil1 str0" d="M3278 3572c31,27 68,47 109,56"/>
   <line id="51" class="fil1 str0" x1="3387" y1="3628" x2="3387" y2= "3708" />
   <line id="52" class="fil1 str0" x1="1633" y1="3708" x2="1633" y2= "3589" />
   <path id="53" class="fil1 str0" d="M1633 3589c-59,-42 -98,-109 -98,-186"/>
   <line id="54" class="fil1 str0" x1="1535" y1="3403" x2="1535" y2= "2876" />
   <polyline id="55" class="fil1 str0" points="2272,2876 2273,3249 2274,3206 2274,3027 "/>
   <path id="56" class="fil1 str0" d="M2274 3027c0,-72 61,-131 138,-131"/>
   <line id="57" class="fil1 str0" x1="2412" y1="2896" x2="2458" y2= "2896" />
   <path id="58" class="fil1 str0" d="M2458 2896c-5,0 -11,0 0,0"/>
   <line id="59" class="fil1 str0" x1="2458" y1="2896" x2="2458" y2= "3061" />
   <path id="60" class="fil1 str0" d="M2458 3061c0,0 1,0 0,0"/>
   <polyline id="61" class="fil1 str0" points="2458,3061 2458,3280 2197,3572 "/>
   <path id="62" class="fil1 str0" d="M2197 3572c-31,27 -69,47 -111,56"/>
   <line id="63" class="fil1 str0" x1="2086" y1="3628" x2="2086" y2= "3708" />
   <line id="64" class="fil1 str0" x1="1535" y1="2880" x2="1535" y2= "2566" />
   <path id="65" class="fil1 str0" d="M1535 2566c0,-48 41,-87 91,-87"/>
   <path id="66" class="fil1 str0" d="M1626 2479c50,0 91,39 91,87"/>
   <line id="67" class="fil1 str0" x1="1717" y1="2566" x2="1717" y2= "2880" />
   <line id="68" class="fil1 str0" x1="1720" y1="2880" x2="1720" y2= "2378" />
   <path id="69" class="fil1 str0" d="M1720 2378c0,-49 41,-87 91,-87"/>
   <path id="70" class="fil1 str0" d="M1811 2291c50,0 91,38 91,87"/>
   <line id="71" class="fil1 str0" x1="1902" y1="2378" x2="1902" y2= "2880" />
   <line id="72" class="fil1 str0" x1="1905" y1="2880" x2="1905" y2= "2289" />
   <path id="73" class="fil1 str0" d="M1905 2289c0,-48 40,-87 91,-87"/>
   <path id="74" class="fil1 str0" d="M1996 2202c50,0 91,39 91,87"/>
   <line id="75" class="fil1 str0" x1="2087" y1="2289" x2="2087" y2= "2880" />
   <line id="76" class="fil1 str0" x1="2090" y1="2880" x2="2090" y2= "2439" />
   <path id="77" class="fil1 str0" d="M2090 2439c0,-48 40,-86 91,-86"/>
   <path id="78" class="fil1 str0" d="M2181 2353c49,0 91,38 91,86"/>
   <line id="79" class="fil1 str0" x1="2272" y1="2439" x2="2272" y2= "2880" />
   <polyline id="80" class="fil1 str0" points="4002,3716 3219,3716 3219,3885 "/>
   <polyline id="81" class="fil1 str0" points="1417,3716 2284,3716 2284,3885 "/>
   <polyline id="82" class="fil1 str0" points="1417,3716 2284,3716 2284,3885 "/>
  </g>
  <rect class="fil1" x="1086" y="1410" width="4284" height="3776"/>
 </g>
</svg>
