<?xml version="1.0" encoding="UTF-8"?>
<!DOCTYPE svg PUBLIC "-//W3C//DTD SVG 1.1//EN" "http://www.w3.org/Graphics/SVG/1.1/DTD/svg11.dtd">
<!-- Creator: CorelDRAW X8 -->
<svg xmlns="http://www.w3.org/2000/svg" xml:space="preserve" width="50mm" height="50mm" version="1.1" style="shape-rendering:geometricPrecision; text-rendering:geometricPrecision; image-rendering:optimizeQuality; fill-rule:evenodd; clip-rule:evenodd"
viewBox="0 0 5000 5000"
 xmlns:xlink="http://www.w3.org/1999/xlink">
 <defs>
  <style type="text/css">
   <![CDATA[
    .str0 {stroke:white;stroke-width:118.73}
    .fil1 {fill:none;fill-rule:nonzero}
    .fil0 {fill:#FAAD41}
   ]]>
  </style>
 </defs>
 <g id="图层_x0020_1">
  <metadata id="CorelCorpID_0Corel-Layer"/>
  <path class="fil0" d="M2641 160l907 524 908 524c90,52 141,141 141,244l0 1048 0 1048c0,103 -51,192 -141,244l-908 524 -907 524c-90,52 -192,52 -282,0l-907 -524 -908 -524c-90,-52 -141,-141 -141,-244l0 -1048 0 -1048c0,-103 51,-192 141,-244l908 -524 907 -524c90,-52 192,-52 282,0z"/>
  <g id="_2609411630368">
   <g>
    <polygon class="fil1 str0" points="3252,1618 1749,1618 1749,2316 2163,2316 2163,3498 2837,3498 2837,2316 3252,2316 "/>
    <g>
     <line class="fil1 str0" x1="985" y1="1618" x2="1112" y2= "1618" />
     <line class="fil1 str0" x1="1220" y1="1618" x2="1347" y2= "1618" />
     <line class="fil1 str0" x1="1454" y1="1618" x2="1581" y2= "1618" />
    </g>
    <g>
     <line class="fil1 str0" x1="3423" y1="1618" x2="3550" y2= "1618" />
     <line class="fil1 str0" x1="3657" y1="1618" x2="3784" y2= "1618" />
     <line class="fil1 str0" x1="3892" y1="1618" x2="4019" y2= "1618" />
    </g>
    <g>
     <line class="fil1 str0" x1="2837" y1="1084" x2="2837" y2= "1216" />
     <line class="fil1 str0" x1="2837" y1="1327" x2="2837" y2= "1459" />
    </g>
    <g>
     <line class="fil1 str0" x1="2163" y1="1084" x2="2163" y2= "1216" />
     <line class="fil1 str0" x1="2163" y1="1327" x2="2163" y2= "1459" />
    </g>
    <g>
     <line class="fil1 str0" x1="2837" y1="3680" x2="2837" y2= "3811" />
     <line class="fil1 str0" x1="2837" y1="3923" x2="2837" y2= "4055" />
    </g>
    <g>
     <line class="fil1 str0" x1="2163" y1="3680" x2="2163" y2= "3811" />
     <line class="fil1 str0" x1="2163" y1="3923" x2="2163" y2= "4055" />
    </g>
    <g>
     <line class="fil1 str0" x1="985" y1="2316" x2="1112" y2= "2316" />
     <line class="fil1 str0" x1="1220" y1="2316" x2="1347" y2= "2316" />
     <line class="fil1 str0" x1="1454" y1="2316" x2="1581" y2= "2316" />
    </g>
    <g>
     <line class="fil1 str0" x1="3423" y1="2316" x2="3550" y2= "2316" />
     <line class="fil1 str0" x1="3657" y1="2316" x2="3784" y2= "2316" />
     <line class="fil1 str0" x1="3892" y1="2316" x2="4019" y2= "2316" />
    </g>
   </g>
  </g>
 </g>
</svg>
