<?xml version="1.0" standalone="no"?><!DOCTYPE svg PUBLIC "-//W3C//DTD SVG 1.1//EN" "http://www.w3.org/Graphics/SVG/1.1/DTD/svg11.dtd"><svg class="icon" width="32px" height="32.00px" viewBox="0 0 1024 1024" version="1.1" xmlns="http://www.w3.org/2000/svg"><path d="M512 902.4C297.6 902.4 121.6 726.4 121.6 512S297.6 121.6 512 121.6 902.4 297.6 902.4 512 726.4 902.4 512 902.4z m0-748.8C313.6 153.6 153.6 313.6 153.6 512s160 358.4 358.4 358.4 358.4-160 358.4-358.4S710.4 153.6 512 153.6z"  /><path d="M409.6 422.4c-3.2 0-3.2 0-6.4-3.2-16-19.2-35.2-28.8-51.2-28.8-32 0-57.6 28.8-60.8 28.8-3.2 3.2-6.4 3.2-12.8 0-3.2-3.2-3.2-6.4 0-12.8 0 0 32-35.2 70.4-35.2 22.4 0 44.8 12.8 64 35.2 3.2 3.2 3.2 9.6 0 12.8 0 3.2 0 3.2-3.2 3.2zM729.6 422.4c-3.2 0-6.4 0-6.4-3.2-12.8-19.2-28.8-28.8-44.8-28.8-32 0-54.4 28.8-54.4 28.8-3.2 3.2-6.4 3.2-12.8 0-3.2-3.2-3.2-6.4 0-12.8 0 0 32-35.2 67.2-35.2 22.4 0 38.4 12.8 54.4 35.2 3.2 3.2 3.2 9.6-3.2 9.6 3.2 6.4 0 6.4 0 6.4zM246.4 540.8l508.8-3.2s0 227.2-256 227.2c-236.8 0-252.8-224-252.8-224z"  /></svg>