<?xml version="1.0" standalone="no"?><!DOCTYPE svg PUBLIC "-//W3C//DTD SVG 1.1//EN" "http://www.w3.org/Graphics/SVG/1.1/DTD/svg11.dtd"><svg class="icon" width="32px" height="32.00px" viewBox="0 0 1024 1024" version="1.1" xmlns="http://www.w3.org/2000/svg"><path d="M512 902.4C297.6 902.4 121.6 726.4 121.6 512S297.6 121.6 512 121.6 902.4 297.6 902.4 512 726.4 902.4 512 902.4z m0-748.8C313.6 153.6 153.6 313.6 153.6 512s160 358.4 358.4 358.4 358.4-160 358.4-358.4S710.4 153.6 512 153.6z"  /><path d="M377.6 416m-48 0a48 48 0 1 0 96 0 48 48 0 1 0-96 0Z"  /><path d="M636.8 416m-48 0a48 48 0 1 0 96 0 48 48 0 1 0-96 0Z"  /><path d="M512 710.4c-83.2 0-144-41.6-176-67.2-6.4-6.4-9.6-16-6.4-22.4 6.4-6.4 12.8-9.6 22.4-6.4l3.2 3.2c57.6 48 172.8 108.8 316.8-3.2 6.4-6.4 16-3.2 22.4 3.2 6.4 6.4 3.2 16-3.2 22.4-64 54.4-124.8 70.4-179.2 70.4z"  /></svg>